<svg width="320" height="135" viewBox="0 0 320 135" fill="none" xmlns="http://www.w3.org/2000/svg">
<mask id="mask0_89_2" style="mask-type:alpha" maskUnits="userSpaceOnUse" x="110" y="0" width="100" height="55">
<path fill-rule="evenodd" clip-rule="evenodd" d="M140.163 0.764716L110.238 52.7109C109.651 53.7288 110.386 55 111.561 55H161.259C161.797 55 162.294 54.7177 162.57 54.2566L193.625 2.31042C194.233 1.29265 193.5 0 192.314 0H141.486C140.94 0 140.436 0.291578 140.163 0.764716ZM183.128 27.8824L168.166 53.8554C167.872 54.3644 168.24 55 168.827 55H193.676C193.945 55 194.194 54.8588 194.332 54.6283L209.859 28.6552C210.163 28.1463 209.797 27.5 209.204 27.5H183.79C183.517 27.5 183.265 27.6458 183.128 27.8824Z" fill="#D9D9D9"/>
</mask>
<g mask="url(#mask0_89_2)">
<rect x="98.6501" y="-7.74463" width="140.271" height="82.9741" fill="#FBFBFB"/>
</g>
<path d="M6.23855 134.169V85.2507H18.8373V89.7955H11.7229V129.624H18.8373V134.169H6.23855ZM38.1956 126V86.7273H53.92C56.8092 86.7273 59.219 87.1555 61.1494 88.0121C63.0798 88.8686 64.5308 90.0575 65.5024 91.5788C66.474 93.0874 66.9598 94.826 66.9598 96.7947C66.9598 98.3288 66.653 99.6776 66.0393 100.841C65.4257 101.991 64.5819 102.937 63.5081 103.679C62.447 104.408 61.2325 104.925 59.8646 105.232V105.616C61.3604 105.68 62.7602 106.102 64.0642 106.881C65.3809 107.661 66.4484 108.754 67.2666 110.161C68.0848 111.554 68.4939 113.216 68.4939 115.146C68.4939 117.23 67.9761 119.09 66.9406 120.727C65.9179 122.35 64.403 123.635 62.3959 124.581C60.3888 125.527 57.915 126 54.9747 126H38.1956ZM46.4988 119.212H53.268C55.5819 119.212 57.2694 118.771 58.3305 117.888C59.3916 116.994 59.9221 115.805 59.9221 114.322C59.9221 113.235 59.6601 112.276 59.1359 111.445C58.6118 110.614 57.8639 109.962 56.8923 109.489C55.9335 109.016 54.7893 108.78 53.4598 108.78H46.4988V119.212ZM46.4988 103.161H52.6544C53.7922 103.161 54.8021 102.963 55.6842 102.567C56.5791 102.158 57.2822 101.582 57.7936 100.841C58.3177 100.099 58.5798 99.2109 58.5798 98.1754C58.5798 96.7564 58.0748 95.6122 57.0649 94.7429C56.0677 93.8736 54.6487 93.4389 52.8078 93.4389H46.4988V103.161ZM80.6659 126H71.7682L85.3257 86.7273H96.026L109.564 126H100.667L90.8293 95.7017H90.5225L80.6659 126ZM80.1098 110.563H101.127V117.045H80.1098V110.563ZM134.699 98.022C134.546 96.4751 133.888 95.2734 132.724 94.4169C131.561 93.5604 129.982 93.1321 127.988 93.1321C126.633 93.1321 125.489 93.3239 124.555 93.7074C123.622 94.0781 122.906 94.5959 122.408 95.2607C121.922 95.9254 121.679 96.6797 121.679 97.5234C121.653 98.2266 121.8 98.8402 122.12 99.3643C122.452 99.8885 122.906 100.342 123.481 100.726C124.057 101.097 124.722 101.423 125.476 101.704C126.23 101.972 127.035 102.202 127.892 102.394L131.42 103.238C133.133 103.621 134.706 104.133 136.138 104.772C137.57 105.411 138.81 106.197 139.858 107.131C140.906 108.064 141.718 109.163 142.293 110.429C142.881 111.695 143.182 113.146 143.195 114.782C143.182 117.185 142.568 119.269 141.354 121.033C140.152 122.785 138.413 124.146 136.138 125.118C133.875 126.077 131.146 126.556 127.949 126.556C124.779 126.556 122.018 126.07 119.665 125.099C117.326 124.127 115.498 122.689 114.181 120.784C112.877 118.866 112.193 116.495 112.129 113.67H120.164C120.253 114.987 120.631 116.086 121.295 116.968C121.973 117.837 122.874 118.496 123.999 118.943C125.137 119.378 126.422 119.595 127.854 119.595C129.26 119.595 130.481 119.391 131.516 118.982C132.565 118.572 133.376 118.004 133.952 117.275C134.527 116.546 134.815 115.709 134.815 114.763C134.815 113.881 134.552 113.139 134.028 112.538C133.517 111.937 132.763 111.426 131.766 111.004C130.781 110.582 129.573 110.199 128.141 109.854L123.865 108.78C120.554 107.974 117.94 106.715 116.022 105.002C114.104 103.289 113.152 100.982 113.165 98.0795C113.152 95.7017 113.785 93.6243 115.063 91.8473C116.354 90.0703 118.125 88.6832 120.375 87.6861C122.625 86.6889 125.182 86.1903 128.045 86.1903C130.96 86.1903 133.504 86.6889 135.677 87.6861C137.864 88.6832 139.564 90.0703 140.778 91.8473C141.993 93.6243 142.619 95.6825 142.658 98.022H134.699ZM148.78 126V86.7273H175.243V93.5732H157.083V102.931H173.881V109.777H157.083V119.154H175.319V126H148.78ZM181.019 119.097V112.558L197.415 86.7273H203.053V95.7784H199.716L189.38 112.136V112.442H212.679V119.097H181.019ZM199.87 126V117.102L200.023 114.207V86.7273H207.809V126H199.87ZM233.61 126.863C230.312 126.85 227.474 126.038 225.096 124.428C222.731 122.817 220.909 120.484 219.631 117.428C218.365 114.373 217.739 110.697 217.751 106.402C217.751 102.119 218.384 98.4695 219.65 95.4524C220.928 92.4354 222.75 90.1406 225.115 88.5682C227.493 86.983 230.324 86.1903 233.61 86.1903C236.896 86.1903 239.721 86.983 242.086 88.5682C244.464 90.1534 246.292 92.4545 247.57 95.4716C248.849 98.4759 249.481 102.119 249.469 106.402C249.469 110.71 248.829 114.392 247.551 117.447C246.285 120.503 244.47 122.836 242.105 124.447C239.74 126.058 236.908 126.863 233.61 126.863ZM233.61 119.979C235.86 119.979 237.656 118.847 238.998 116.585C240.341 114.322 241.006 110.928 240.993 106.402C240.993 103.423 240.686 100.943 240.072 98.9616C239.472 96.9801 238.615 95.4908 237.503 94.4936C236.403 93.4964 235.106 92.9979 233.61 92.9979C231.373 92.9979 229.583 94.1165 228.241 96.3537C226.898 98.5909 226.221 101.94 226.208 106.402C226.208 109.419 226.508 111.938 227.109 113.957C227.723 115.964 228.586 117.473 229.698 118.483C230.81 119.48 232.114 119.979 233.61 119.979ZM269.733 126.537C267.023 126.537 264.607 126.038 262.484 125.041C260.375 124.044 258.7 122.67 257.46 120.918C256.22 119.167 255.575 117.16 255.524 114.897H263.578C263.667 116.418 264.306 117.652 265.495 118.598C266.684 119.544 268.097 120.017 269.733 120.017C271.037 120.017 272.188 119.729 273.185 119.154C274.195 118.566 274.981 117.754 275.543 116.719C276.119 115.67 276.406 114.469 276.406 113.114C276.406 111.733 276.112 110.518 275.524 109.47C274.949 108.422 274.15 107.604 273.127 107.016C272.104 106.428 270.935 106.127 269.618 106.114C268.467 106.114 267.349 106.351 266.262 106.824C265.188 107.297 264.351 107.942 263.75 108.761L256.367 107.438L258.227 86.7273H282.236V93.5156H265.073L264.057 103.353H264.287C264.977 102.381 266.019 101.576 267.413 100.937C268.806 100.298 270.366 99.978 272.092 99.978C274.457 99.978 276.566 100.534 278.42 101.646C280.274 102.759 281.737 104.286 282.811 106.229C283.885 108.16 284.416 110.384 284.403 112.903C284.416 115.549 283.802 117.901 282.562 119.96C281.335 122.005 279.615 123.616 277.403 124.792C275.205 125.955 272.648 126.537 269.733 126.537ZM313.757 85.2507V134.169H301.158V129.624H308.272V89.7955H301.158V85.2507H313.757Z" fill="#EFEFEF"/>
</svg>
