<svg width="100" height="55" viewBox="0 0 100 55" fill="none" xmlns="http://www.w3.org/2000/svg">
<mask id="mask0_14_212" style="mask-type:alpha" maskUnits="userSpaceOnUse" x="0" y="0" width="100" height="55">
<path fill-rule="evenodd" clip-rule="evenodd" d="M30.1634 0.764716L0.237858 52.7109C-0.348569 53.7288 0.386151 55 1.56093 55H51.2595C51.7967 55 52.2944 54.7177 52.5701 54.2566L83.6248 2.31042C84.2333 1.29265 83.5 0 82.3142 0H31.4864C30.9404 0 30.4359 0.291578 30.1634 0.764716ZM73.1283 27.8824L58.1655 53.8554C57.8723 54.3644 58.2397 55 58.8271 55H83.6763C83.945 55 84.1938 54.8588 84.3316 54.6283L99.859 28.6552C100.163 28.1463 99.7966 27.5 99.2037 27.5H73.7898C73.5168 27.5 73.2646 27.6458 73.1283 27.8824Z" fill="#D9D9D9"/>
</mask>
<g mask="url(#mask0_14_212)">
<rect x="-11.3499" y="-7.74463" width="140.271" height="82.9741" fill="#D9D9D9"/>
</g>
</svg>
