<svg width="328" height="151" viewBox="0 0 328 151" fill="none" xmlns="http://www.w3.org/2000/svg">
<path d="M229.519 7.87832L191.626 1.58521C187.314 0.869182 183.239 3.78376 182.523 8.09506L176.23 45.9875C175.514 50.2988 178.428 54.3742 182.74 55.0903L220.633 61.3834C224.944 62.0994 229.019 59.1848 229.735 54.8735L236.029 16.9812C236.745 12.6698 233.83 8.5943 229.519 7.87832Z" fill="#131313" stroke="#131313" stroke-width="1.5608" stroke-miterlimit="10"/>
<path d="M228.586 11.0134L191.494 4.85329C186.962 4.10056 182.677 7.16459 181.925 11.697L174.803 54.5781C174.051 59.1105 177.114 63.395 181.647 64.1477L218.739 70.3079C223.271 71.0606 227.556 67.9965 228.309 63.4641L235.43 20.5831C236.183 16.0507 233.118 11.7662 228.586 11.0134Z" fill="#131313" stroke="#131313" stroke-width="1.5608" stroke-miterlimit="10"/>
<path d="M186.609 17.2063L187.3 13.049C187.557 11.5237 188.408 10.1623 189.667 9.26246C190.925 8.36262 192.488 7.9975 194.015 8.24689L196.941 8.73273L186.609 17.2063Z" fill="#F5F2EC"/>
<path d="M233.301 45.6866L231.72 55.2021C231.289 57.3282 230.032 59.1965 228.225 60.3973C226.417 61.5979 224.208 62.033 222.081 61.607L181.525 54.8715C179.376 54.5872 177.428 53.4611 176.108 51.7408C174.789 50.0205 174.206 47.8466 174.489 45.6972L175.882 37.3058" stroke="#F5F2EC" stroke-width="1.5608" stroke-miterlimit="10"/>
<path d="M193.481 42.3224L186.46 41.1563L194.801 34.3774L195.138 32.345L184.976 30.6573L184.638 32.6897L191.66 33.8558L183.319 40.6347L182.981 42.6671L193.143 44.3548L193.481 42.3224Z" fill="#F5F2EC"/>
<path d="M163.258 64.9437L97.4962 81.1276C91.9133 82.5012 88.5016 88.1411 89.8752 93.7241L98.6812 129.507C100.056 135.09 105.695 138.502 111.278 137.128L177.039 120.944C182.622 119.571 186.035 113.931 184.66 108.348L175.854 72.5648C174.481 66.9818 168.841 63.5697 163.258 64.9437Z" fill="#131313" stroke="#131313" stroke-width="1.5608" stroke-miterlimit="10"/>
<path d="M174.762 110.576L108.394 126.909C105.793 127.549 103.045 127.129 100.754 125.743C98.4617 124.357 96.8148 122.117 96.175 119.516L88.0366 86.4465C87.3967 83.8456 87.8164 81.0968 89.2023 78.8055C90.589 76.5142 92.8288 74.8672 95.4297 74.2272L161.797 57.8944C164.397 57.2544 167.146 57.6737 169.438 59.0601C171.729 60.4465 173.376 62.6863 174.016 65.287L182.146 98.3269C182.468 99.6158 182.532 100.956 182.335 102.27C182.138 103.584 181.683 104.846 180.997 105.984C180.311 107.122 179.407 108.114 178.337 108.901C177.267 109.69 176.052 110.259 174.762 110.576Z" fill="#131313" stroke="#131313" stroke-width="1.5608" stroke-miterlimit="10"/>
<path d="M182.565 91.472L184.14 97.868C184.436 99.1907 184.469 100.558 184.236 101.893C184.004 103.228 183.51 104.505 182.784 105.649C182.058 106.794 181.114 107.783 180.005 108.563C178.897 109.343 177.645 109.896 176.323 110.191L107.227 127.195C105.919 127.547 104.555 127.637 103.212 127.462C101.869 127.286 100.574 126.846 99.4005 126.168C98.2279 125.492 97.2 124.589 96.3761 123.514C95.5523 122.439 94.9479 121.212 94.5991 119.904L93.1924 114.19" stroke="#F5F2EC" stroke-width="1.5608" stroke-miterlimit="10"/>
<path d="M95.3045 89.6564L94.2936 85.5495C93.9248 84.0504 94.1665 82.4658 94.9657 81.1446C95.7649 79.8233 97.0562 78.874 98.5553 78.5052L104.33 77.0838L95.3045 89.6564Z" fill="#F5F2EC"/>
<path d="M102.72 107.703C101.937 104.52 103.122 103.071 104.85 102.646C106.578 102.221 107.825 102.974 108.41 104.567L111.138 103.895C110.442 101.462 108.109 99.8183 104.381 100.736C100.471 101.698 99.1187 104.828 99.9918 108.374C100.864 111.92 103.514 114.065 107.424 113.103C111.171 112.181 112.457 109.647 111.943 107.169L109.215 107.84C109.458 109.613 108.682 110.769 106.954 111.194C105.227 111.619 103.503 110.886 102.72 107.703ZM111.928 103.99L113.747 103.543L114.889 108.18C115.426 110.362 116.037 110.887 117.946 110.417C118.765 110.216 119.903 109.743 119.903 109.743L119.477 108.015C119.477 108.015 118.773 108.285 118.408 108.375C117.772 108.531 117.454 108.416 117.253 107.598L116.112 102.96L118.112 102.468L117.665 100.649L115.664 101.142L114.993 98.4139L112.628 98.9952L113.3 101.723L111.481 102.171L111.928 103.99ZM123.263 108.916L122.345 105.187C121.764 102.823 123.04 101.738 124.312 101.424L124.949 101.268L124.345 98.8127L124.072 98.8797C121.944 99.4033 121.63 102.124 121.624 102.26L121.025 99.8221L118.661 100.404L120.898 109.497L123.263 108.916ZM127.541 107.863L129.905 107.281L126.996 95.4596L124.632 96.0416L127.541 107.863Z" fill="#F5F2EC"/>
<path d="M250.84 26.016L252.13 18.9354C252.167 18.8039 252.245 18.6881 252.351 18.6058C252.458 18.5234 252.588 18.4789 252.721 18.4789C252.855 18.4789 252.985 18.5234 253.092 18.6058C253.199 18.6881 253.276 18.8039 253.313 18.9354L254.603 26.016C254.625 26.1334 254.679 26.242 254.759 26.3297C254.838 26.4174 254.94 26.4807 255.053 26.5123L260.141 27.8195C260.269 27.857 260.382 27.9364 260.462 28.0456C260.543 28.1549 260.587 28.2878 260.587 28.4247C260.587 28.5614 260.543 28.6945 260.462 28.8038C260.382 28.913 260.269 28.9923 260.141 29.0298L255.064 30.325C254.949 30.3569 254.844 30.4214 254.763 30.5113C254.681 30.6012 254.625 30.7127 254.603 30.8332L253.313 38.6644C253.276 38.7959 253.199 38.9115 253.092 38.9939C252.985 39.0763 252.855 39.1208 252.721 39.1208C252.588 39.1208 252.458 39.0763 252.351 38.9939C252.245 38.9115 252.167 38.7959 252.13 38.6644L250.829 30.8332C250.811 30.7125 250.759 30.5999 250.679 30.5094C250.599 30.4189 250.495 30.3548 250.379 30.325L245.291 29.0298C245.163 28.9923 245.05 28.913 244.969 28.8038C244.889 28.6945 244.845 28.5614 244.845 28.4247C244.845 28.2878 244.889 28.1549 244.969 28.0456C245.05 27.9364 245.163 27.857 245.291 27.8195L250.379 26.5123C250.494 26.4826 250.598 26.4203 250.679 26.3325C250.762 26.2447 250.817 26.1349 250.84 26.016Z" fill="#FFDC81"/>
<path d="M62.7874 65.271L64.8655 53.8624C64.9246 53.6505 65.0498 53.464 65.2217 53.3313C65.3937 53.1985 65.6033 53.1268 65.8187 53.1268C66.0341 53.1268 66.2438 53.1985 66.4157 53.3313C66.5877 53.464 66.7128 53.6505 66.772 53.8624L68.85 65.271C68.8859 65.4601 68.9728 65.6351 69.1009 65.7764C69.2288 65.9177 69.3929 66.0196 69.5745 66.0706L77.7724 68.1767C77.9795 68.2373 78.162 68.3653 78.2913 68.5412C78.4214 68.7171 78.4915 68.9315 78.4915 69.1519C78.4915 69.3722 78.4214 69.5868 78.2913 69.7627C78.162 69.9387 77.9795 70.0664 77.7724 70.1269L69.5936 72.2138C69.407 72.2652 69.2383 72.3691 69.1068 72.514C68.9754 72.6588 68.8863 72.8386 68.85 73.0327L66.772 85.6503C66.7128 85.8628 66.5877 86.0492 66.4157 86.1816C66.2438 86.314 66.0341 86.3864 65.8187 86.3864C65.6033 86.3864 65.3937 86.314 65.2217 86.1816C65.0498 86.0492 64.9246 85.8628 64.8655 85.6503L62.7684 73.0327C62.7403 72.8382 62.6564 72.6567 62.5275 72.5109C62.3986 72.3651 62.2303 72.2618 62.0439 72.2138L53.846 70.1269C53.6389 70.0664 53.4566 69.9387 53.3268 69.7627C53.1971 69.5868 53.127 69.3722 53.127 69.1519C53.127 68.9315 53.1971 68.7171 53.3268 68.5412C53.4566 68.3653 53.6389 68.2373 53.846 68.1767L62.0439 66.0706C62.229 66.0229 62.3971 65.9224 62.5287 65.7809C62.6603 65.6394 62.75 65.4625 62.7874 65.271Z" fill="#FFDC81"/>
<path d="M75.4555 116.567H69.2959V122.727H75.4555V116.567Z" fill="#131313"/>
<path d="M81.6508 122.811H75.4912V128.97H81.6508V122.811Z" fill="#131313"/>
<path d="M241.765 66.8867H235.605V73.0463H241.765V66.8867Z" fill="#131313"/>
<path d="M247.925 60.5781H241.766V66.7377H247.925V60.5781Z" fill="#131313"/>
<path d="M160.92 38.4977H154.761V44.6573H160.92V38.4977Z" fill="#131313"/>
</svg>
